<?xml version="1.0" standalone="no"?>
<!DOCTYPE svg PUBLIC "-//W3C//DTD SVG 20010904//EN"
 "http://www.w3.org/TR/2001/REC-SVG-20010904/DTD/svg10.dtd">
<svg version="1.0" xmlns="http://www.w3.org/2000/svg"
 width="28.800000pt" height="28.800000pt" viewBox="0 0 28.800000 28.800000"
 preserveAspectRatio="xMidYMid meet">
<metadata>
Created by potrace 1.16, written by Peter Selinger 2001-2019
</metadata>
<g transform="translate(0.000000,28.800000) scale(0.005625,-0.005625)"
fill="#000000" stroke="none">
<path d="M2684 3970 c-5 -5 -77 -10 -161 -11 -118 -1 -151 -4 -147 -14 3 -7
-4 -15 -15 -18 -13 -3 -21 -13 -21 -26 0 -13 -6 -21 -17 -21 -9 0 -13 -3 -10
-7 4 -3 -5 -16 -18 -29 -14 -13 -25 -29 -25 -36 0 -7 -16 -31 -35 -52 -19 -22
-35 -44 -35 -48 0 -5 -12 -20 -27 -34 -15 -14 -28 -34 -30 -46 -2 -12 -12 -28
-23 -35 -11 -8 -20 -18 -20 -24 0 -5 -9 -18 -20 -29 -12 -12 -18 -25 -15 -30
3 -5 -4 -11 -15 -15 -11 -3 -20 -13 -20 -21 0 -8 -5 -12 -10 -9 -6 4 -10 3 -9
-2 3 -20 -2 -44 -8 -40 -5 2 -16 -4 -25 -15 -10 -10 -17 -18 -15 -19 25 -8 38
-5 33 6 -3 9 0 12 10 8 10 -4 14 2 14 21 0 16 6 26 15 26 8 0 15 9 15 20 0 11
5 20 10 20 19 0 50 40 50 65 0 16 6 25 15 25 9 0 20 12 25 26 6 14 14 22 20
19 6 -3 10 4 10 17 0 13 14 36 33 54 18 16 36 38 40 47 3 9 11 17 18 17 6 0 8
7 5 16 -3 9 4 24 17 37 13 12 32 34 42 50 9 15 23 27 30 27 7 0 15 14 19 30
l6 30 105 0 105 0 -6 -42 c-5 -30 -16 -50 -35 -67 -16 -13 -26 -27 -23 -32 3
-5 -6 -9 -19 -9 -14 0 -30 -7 -37 -15 -7 -8 -19 -15 -26 -15 -8 0 -14 -9 -14
-21 0 -11 -5 -17 -10 -14 -21 13 -49 -7 -70 -50 -12 -25 -26 -45 -31 -45 -5 0
-9 -40 -9 -89 0 -70 3 -90 15 -95 8 -3 15 -14 15 -25 0 -11 7 -26 15 -35 8 -8
15 -19 15 -24 0 -6 7 -12 15 -16 8 -3 15 -15 15 -26 0 -11 7 -23 15 -26 8 -4
15 -13 15 -20 0 -8 7 -17 15 -20 19 -8 19 -51 1 -70 -23 -22 -95 -18 -117 8
-11 11 -19 25 -19 30 0 4 -7 8 -15 8 -12 0 -15 13 -15 61 0 45 -3 58 -12 53
-10 -6 -10 -4 0 8 9 11 12 39 10 85 -3 66 -4 68 -30 71 -19 2 -28 -1 -28 -11
0 -8 -8 -17 -18 -19 -10 -3 -18 -15 -19 -28 -1 -13 -9 -28 -18 -32 -8 -5 -15
-22 -15 -38 0 -20 -5 -30 -15 -30 -12 0 -15 -15 -15 -79 0 -81 6 -115 20 -106
4 2 10 -17 13 -42 3 -26 10 -49 16 -51 6 -2 11 -16 11 -32 0 -19 6 -29 20 -33
18 -5 20 -13 19 -89 -1 -103 -11 -174 -24 -170 -6 1 -11 -33 -12 -85 -1 -76 1
-89 18 -101 10 -7 19 -22 19 -34 0 -21 60 -88 79 -88 6 0 11 -5 11 -10 0 -6
19 -30 43 -53 39 -40 62 -97 37 -97 -5 0 -17 -13 -27 -30 -14 -24 -24 -30 -50
-30 -18 0 -33 5 -33 10 0 16 -38 50 -56 50 -10 0 -14 5 -10 15 3 9 -1 18 -9
21 -8 4 -15 17 -15 30 0 14 -7 27 -15 30 -13 5 -15 36 -15 194 0 154 -3 191
-15 204 -8 8 -15 26 -15 41 0 14 -7 28 -15 31 -8 4 -15 14 -15 24 0 10 -7 25
-15 34 -8 8 -15 19 -15 25 0 6 -6 11 -14 11 -8 0 -17 14 -21 30 -4 17 -13 30
-21 30 -10 0 -14 15 -14 60 0 45 -4 62 -15 66 -11 5 -15 22 -15 65 l0 59 -35
0 c-31 0 -35 3 -35 25 0 16 6 25 15 25 9 0 19 8 22 18 4 9 13 22 21 28 12 9
13 12 2 19 -9 6 -18 2 -24 -9 -6 -10 -19 -27 -28 -38 -10 -12 -18 -26 -18 -32
0 -6 -16 -28 -36 -50 -21 -23 -33 -45 -29 -53 3 -10 1 -13 -9 -10 -13 5 -30
-24 -27 -45 1 -5 -4 -8 -10 -8 -12 0 -38 -29 -39 -42 0 -17 18 -6 23 13 3 12
10 18 15 15 5 -3 15 7 22 23 6 16 19 32 27 35 8 4 13 12 10 20 -4 9 3 16 18
20 15 4 22 11 19 20 -3 7 2 16 10 19 12 5 16 -1 16 -23 0 -19 -5 -30 -14 -30
-18 0 -26 -45 -26 -155 0 -110 8 -155 26 -155 9 0 14 -11 14 -30 0 -20 5 -30
15 -30 12 0 15 -19 15 -115 0 -96 -3 -115 -15 -115 -12 0 -15 -13 -15 -59 0
-49 -3 -59 -19 -64 -19 -5 -19 -17 -20 -293 -1 -273 4 -324 28 -310 4 3 7 -4
8 -14 2 -20 14 -38 46 -68 9 -9 17 -22 17 -29 0 -7 9 -21 20 -30 11 -10 20
-25 20 -34 0 -12 7 -15 25 -11 18 3 25 0 25 -12 0 -9 7 -16 15 -16 9 0 18 -7
21 -15 4 -8 19 -15 34 -15 20 0 31 -6 35 -19 4 -13 13 -18 25 -16 11 2 26 -3
34 -11 9 -8 34 -14 65 -14 40 0 52 -4 61 -20 10 -19 21 -20 185 -20 164 0 175
1 185 20 9 16 21 20 64 20 34 0 58 5 65 14 7 8 23 13 37 10 20 -4 27 0 31 16
4 13 14 20 30 20 13 0 31 7 39 15 9 8 24 15 35 15 10 0 19 7 19 15 0 8 6 15
14 15 8 0 16 7 20 15 3 8 12 15 21 15 8 0 15 8 15 18 0 13 2 14 9 4 14 -22 1
-62 -20 -62 -12 0 -19 -7 -19 -20 0 -11 -4 -20 -9 -20 -11 0 -25 -39 -17 -47
10 -11 36 19 36 42 0 14 7 25 20 28 12 3 20 14 20 27 0 11 4 18 10 15 6 -3 7
1 4 9 -4 11 0 16 10 16 9 0 16 5 16 11 0 5 4 7 10 4 5 -3 7 0 5 7 -3 8 4 24
15 36 11 12 16 22 10 22 -5 0 -10 7 -10 15 0 8 5 15 10 15 6 0 10 -5 10 -10 0
-6 8 -5 20 2 11 7 20 18 20 24 0 6 7 17 15 24 8 6 14 15 13 18 -2 21 4 32 17
32 8 0 15 7 15 15 0 8 15 31 34 50 19 20 38 44 41 55 4 11 11 20 16 20 5 0 9
6 9 14 0 8 13 28 29 45 16 17 27 31 25 31 -1 0 8 12 22 27 13 14 22 28 19 31
-2 3 7 15 20 28 43 40 26 49 -19 10 -16 -13 -29 -35 -29 -50 -2 -17 -8 -26
-19 -26 -16 0 -23 -11 -19 -32 0 -5 -6 -8 -14 -8 -8 0 -15 -9 -15 -20 0 -11
-3 -19 -7 -19 -25 4 -33 -4 -33 -31 0 -20 -5 -30 -15 -30 -9 0 -15 -6 -13 -14
2 -8 -1 -15 -5 -15 -14 -1 -38 -31 -33 -40 3 -5 -1 -15 -10 -22 -13 -11 -14
-9 -8 17 4 16 12 36 20 44 7 9 11 29 8 51 -4 30 -2 37 14 41 17 5 19 19 25
132 4 70 4 167 0 216 -5 76 -9 89 -25 94 -15 3 -18 10 -13 25 4 15 -6 32 -45
71 -27 27 -50 55 -50 61 0 5 -5 7 -10 4 -6 -3 -13 1 -16 9 -3 9 -10 16 -15 16
-5 0 -18 9 -29 20 -11 11 -27 20 -35 20 -8 0 -15 7 -15 15 0 8 -9 15 -20 15
-11 0 -19 3 -18 8 4 11 -35 52 -49 52 -9 0 -13 36 -15 138 l-3 137 -25 0 c-20
0 -26 -6 -28 -28 -2 -16 -11 -31 -20 -35 -28 -10 -40 -28 -44 -63 -2 -26 -7
-33 -20 -31 -16 2 -18 -5 -18 -56 0 -44 -4 -61 -15 -66 -11 -4 -15 -23 -15
-80 0 -56 4 -75 15 -80 8 -3 15 -16 15 -30 0 -15 7 -25 20 -29 14 -3 20 -14
20 -32 0 -16 12 -38 30 -57 17 -16 30 -36 30 -44 0 -8 5 -14 10 -14 17 0 11
-58 -7 -80 -13 -15 -30 -20 -65 -20 -59 0 -92 27 -95 80 -1 19 -6 36 -12 38
-17 6 -14 210 3 228 10 10 13 32 10 78 -3 57 -2 67 16 76 14 8 20 21 20 46 0
20 7 42 15 50 8 9 15 26 15 39 0 13 5 25 11 27 5 2 13 22 16 45 3 23 11 41 17
40 6 -1 12 17 14 43 2 25 9 48 17 52 17 10 15 150 -3 156 -7 2 -12 20 -12 41
0 27 -8 45 -30 69 -16 18 -30 37 -30 43 0 5 -6 9 -14 9 -10 0 -16 14 -18 43
l-3 42 -53 3 c-49 3 -53 2 -48 -16 4 -12 0 -26 -9 -35 -19 -19 -19 -86 0 -110
7 -11 11 -25 9 -32 -3 -7 4 -16 16 -20 30 -10 19 -29 -19 -33 -25 -3 -38 3
-57 23 -13 14 -24 35 -24 45 0 11 -9 24 -20 30 -19 10 -20 14 -11 93 1 4 7 6
13 5 7 -2 14 7 16 20 2 13 10 26 18 29 8 3 14 14 14 24 0 10 5 19 11 19 7 0
20 10 30 22 26 29 28 198 3 198 -13 0 -15 8 -11 40 4 40 -1 48 -19 30z"/>
</g>
</svg>
